<svg width="848" height="615" viewBox="0 0 848 615" fill="none" xmlns="http://www.w3.org/2000/svg">
<path d="M0 222.167C15.1391 250.919 79.8623 278.156 137.389 253.57C226.922 215.301 298.06 106.123 433.358 115.101C627.144 127.966 601.531 324.664 689.969 389.005C801.24 469.964 841.736 540.332 847.041 614.866H0V222.167Z" fill="url(#paint0_linear_1694_51)"/>
<path d="M401.978 86.8457C401.978 86.8457 401.075 95.7662 394.035 96.3845C401.075 97.0029 401.978 105.916 401.978 105.916C401.978 105.916 402.881 96.9958 409.921 96.3845C402.881 95.7662 401.978 86.8457 401.978 86.8457Z" fill="#00B4FF"/>
<path d="M238.911 5.69531C238.911 5.69531 237.709 17.5727 228.33 18.3972C237.709 19.2217 238.911 31.0991 238.911 31.0991C238.911 31.0991 240.12 19.2217 249.492 18.3972C240.113 17.5727 238.911 5.69531 238.911 5.69531Z" fill="#7D00D2"/>
<path d="M551.783 104.588C551.783 104.588 550.986 112.456 544.771 112.997C550.979 113.544 551.783 121.405 551.783 121.405C551.783 121.405 552.579 113.537 558.794 112.997C552.586 112.449 551.783 104.588 551.783 104.588Z" fill="#7D00D2"/>
<path d="M151.533 220.461C151.533 220.461 150.331 232.338 140.952 233.163C150.331 233.987 151.533 245.865 151.533 245.865C151.533 245.865 152.742 233.987 162.114 233.163C152.735 232.338 151.533 220.461 151.533 220.461Z" fill="#7D00D2"/>
<path d="M181.591 117.083C181.591 117.083 180.78 125.058 174.487 125.613C180.788 126.167 181.591 134.142 181.591 134.142C181.591 134.142 182.402 126.167 188.695 125.613C182.395 125.058 181.591 117.083 181.591 117.083Z" fill="#7772D6"/>
<path d="M748.206 294.369C748.206 294.369 746.997 306.247 737.625 307.071C747.004 307.896 748.206 319.773 748.206 319.773C748.206 319.773 749.408 307.896 758.787 307.071C749.408 306.247 748.206 294.369 748.206 294.369Z" fill="#7772D6"/>
<path d="M106.023 188.411C106.023 188.411 104.822 200.288 95.4424 201.113C104.822 201.938 106.023 213.815 106.023 213.815C106.023 213.815 107.232 201.938 116.604 201.113C107.225 200.288 106.023 188.411 106.023 188.411Z" fill="#00B4FF"/>
<path d="M783.839 164.38C783.839 164.38 782.63 176.257 773.258 177.082C782.637 177.906 783.839 189.784 783.839 189.784C783.839 189.784 785.04 177.906 794.42 177.082C785.04 176.257 783.839 164.38 783.839 164.38Z" fill="#00B4FF"/>
<path d="M507.12 18.3965C507.12 18.3965 505.911 30.2738 496.539 31.0984C505.918 31.9229 507.12 43.8002 507.12 43.8002C507.12 43.8002 508.322 31.9229 517.701 31.0984C508.322 30.2738 507.12 18.3965 507.12 18.3965Z" fill="#7772D6"/>
<path d="M228.771 145.657H699.959C708.578 145.657 715.575 152.651 715.575 161.266V497.223C715.575 505.837 708.578 512.832 699.959 512.832H228.764C220.146 512.832 213.148 505.837 213.148 497.223V161.273C213.148 152.659 220.146 145.657 228.771 145.657Z" fill="#00B4FF"/>
<path d="M236.629 159.994H680.02V498.502H236.629C230.862 498.502 226.183 493.825 226.183 488.061V170.436C226.183 164.671 230.862 159.994 236.629 159.994Z" fill="#D1EAF2"/>
<path opacity="0.3" d="M710.995 329.248C710.995 336.285 705.292 341.986 698.252 341.986C691.213 341.986 685.51 336.285 685.51 329.248C685.51 322.211 691.213 316.511 698.252 316.511C705.292 316.511 710.995 322.211 710.995 329.248Z" fill="#DAEEF7"/>
<path d="M658.695 204.873H244.55V492.702H658.695V204.873Z" fill="white"/>
<path d="M318.496 428.758L304.018 428.495C298.991 419.39 295.308 411.472 295.308 411.472C311.656 407.705 325.451 409.254 336.949 413.668L343.285 429.05L344.643 417.208C373.129 432.575 384.869 465.101 384.869 465.101C384.869 465.101 334.524 459.742 323.851 454.78C319.726 452.861 314.535 445.974 309.714 438.233C313.575 434.558 318.503 428.758 318.503 428.758H318.496Z" fill="#7772D6"/>
<path d="M295.308 411.472C295.308 411.472 359.945 438.66 384.862 465.101C384.862 465.101 334.517 459.742 323.844 454.78C319.719 452.861 314.528 445.974 309.707 438.233C313.568 434.558 318.496 428.758 318.496 428.758L304.018 428.495C298.991 419.39 295.308 411.472 295.308 411.472Z" fill="#45258F"/>
<path d="M297.37 454.93C306.074 449.635 314.856 446.799 323.353 445.669C325.842 448.76 328.9 452.407 328.9 452.407L329.22 445.15C361.823 443.664 388.837 465.5 388.837 465.5C369.951 477.398 353.845 480.675 340.654 479.616C339.872 477.078 338.763 473.29 338.763 473.29L336.43 479.118C330.101 478.13 324.527 476.154 319.705 473.745C320.943 470.724 322.244 467.262 322.244 467.262L315.218 471.25C303.443 464.057 297.37 454.93 297.37 454.93Z" fill="#7772D6"/>
<path d="M340.654 479.615C339.872 477.078 338.763 473.289 338.763 473.289L336.43 479.118C330.101 478.13 324.527 476.154 319.705 473.744C320.943 470.723 322.244 467.262 322.244 467.262L315.218 471.249C303.443 464.056 297.37 454.929 297.37 454.929C335.356 450.544 388.844 465.499 388.844 465.499C369.958 477.398 353.852 480.674 340.661 479.615H340.654Z" fill="#45258F"/>
<path d="M471.829 404.186L421.427 424.422L359.036 269.143L401.637 252.041C405.947 250.314 410.839 252.403 412.567 256.704L471.822 404.193L471.829 404.186Z" fill="#00B4FF"/>
<path d="M453.7 262.803L357.194 279.899L381.241 415.523L477.746 398.427L453.7 262.803Z" fill="#ADCFD8"/>
<path d="M429.322 281.007L386.227 288.642L386.398 289.607L429.494 281.973L429.322 281.007Z" fill="#55769F"/>
<path d="M437.94 276.951L376.737 287.793L376.909 288.759L438.111 277.917L437.94 276.951Z" fill="#55769F"/>
<path d="M446.689 288.406L372.442 301.559L372.614 302.524L446.86 289.371L446.689 288.406Z" fill="#55769F"/>
<path d="M447.517 293.059L373.271 306.212L373.442 307.178L447.689 294.025L447.517 293.059Z" fill="#55769F"/>
<path d="M449.166 302.36L374.919 315.513L375.09 316.479L449.337 303.325L449.166 302.36Z" fill="#55769F"/>
<path d="M449.993 307.006L375.746 320.159L375.917 321.125L450.164 307.972L449.993 307.006Z" fill="#55769F"/>
<path d="M450.814 311.659L376.567 324.812L376.739 325.778L450.985 312.625L450.814 311.659Z" fill="#55769F"/>
<path d="M454.451 332.114L380.204 345.267L380.375 346.232L454.622 333.079L454.451 332.114Z" fill="#55769F"/>
<path d="M455.3 336.938L381.054 350.091L381.225 351.057L455.472 337.904L455.3 336.938Z" fill="#55769F"/>
<path d="M456.158 341.761L381.911 354.914L382.082 355.88L456.329 342.727L456.158 341.761Z" fill="#55769F"/>
<path d="M457.015 346.584L382.769 359.737L382.94 360.703L457.187 347.55L457.015 346.584Z" fill="#55769F"/>
<path d="M457.866 351.407L383.619 364.561L383.79 365.526L458.037 352.373L457.866 351.407Z" fill="#55769F"/>
<path d="M458.722 356.232L384.476 369.385L384.647 370.351L458.894 357.198L458.722 356.232Z" fill="#55769F"/>
<path d="M459.573 361.055L385.326 374.208L385.497 375.174L459.744 362.021L459.573 361.055Z" fill="#55769F"/>
<path d="M439.79 259.429L345.006 284.355L380.065 417.56L474.849 392.634L439.79 259.429Z" fill="#DAEEF7"/>
<path d="M416.982 279.567L374.655 290.698L374.905 291.647L417.232 280.516L416.982 279.567Z" fill="#00B4FF"/>
<path d="M425.24 274.817L365.129 290.625L365.379 291.574L425.489 275.766L425.24 274.817Z" fill="#00B4FF"/>
<path d="M434.9 285.516L361.978 304.693L362.227 305.642L435.149 286.465L434.9 285.516Z" fill="#00B4FF"/>
<path d="M436.102 290.085L363.18 309.263L363.429 310.211L436.352 291.034L436.102 290.085Z" fill="#00B4FF"/>
<path d="M438.51 299.215L365.588 318.393L365.838 319.341L438.76 300.164L438.51 299.215Z" fill="#00B4FF"/>
<path d="M439.712 303.792L366.79 322.97L367.04 323.918L439.962 304.741L439.712 303.792Z" fill="#00B4FF"/>
<path d="M440.914 308.361L367.992 327.538L368.242 328.487L441.164 309.309L440.914 308.361Z" fill="#00B4FF"/>
<path d="M446.203 328.453L373.281 347.63L373.531 348.578L446.453 329.401L446.203 328.453Z" fill="#00B4FF"/>
<path d="M447.446 333.191L374.523 352.368L374.773 353.317L447.695 334.14L447.446 333.191Z" fill="#00B4FF"/>
<path d="M448.703 337.919L375.78 357.097L376.03 358.045L448.952 338.868L448.703 337.919Z" fill="#00B4FF"/>
<path d="M449.946 342.665L377.023 361.842L377.273 362.79L450.195 343.613L449.946 342.665Z" fill="#00B4FF"/>
<path d="M451.188 347.403L378.266 366.58L378.515 367.529L451.438 348.351L451.188 347.403Z" fill="#55769F"/>
<path d="M452.439 352.138L379.517 371.315L379.766 372.264L452.689 353.087L452.439 352.138Z" fill="#55769F"/>
<path d="M453.681 356.876L380.759 376.054L381.008 377.002L453.931 357.825L453.681 356.876Z" fill="#55769F"/>
<path d="M452.707 411.863L351.242 452.598L292.065 305.301L377.325 252.723C382.118 249.767 388.418 251.842 390.516 257.066L452.707 411.863Z" fill="#62BDF3"/>
<path d="M487.608 259.163L499.277 250.598C498.125 240.263 496.56 231.67 496.56 231.67C481.037 238.024 470.663 247.251 463.829 257.486L467.541 273.699L459.598 264.814C445.206 293.8 454.407 327.137 454.407 327.137C454.407 327.137 492.422 293.708 498.274 283.501C500.535 279.556 500.791 270.934 500.258 261.829C494.989 261.054 487.608 259.163 487.608 259.163Z" fill="#3AFFFF"/>
<path d="M496.561 231.677C496.561 231.677 459.478 291.177 454.4 327.143C454.4 327.143 492.415 293.715 498.267 283.508C500.529 279.563 500.785 270.941 500.251 261.836C494.982 261.061 487.601 259.17 487.601 259.17L499.27 250.605C498.118 240.27 496.554 231.677 496.554 231.677H496.561Z" fill="#45DDD9"/>
<path d="M519.976 268.354C509.808 269.05 501.004 271.801 493.41 275.781C493.161 279.748 492.77 284.481 492.77 284.481L488.319 278.745C460.835 296.345 451.385 329.766 451.385 329.766C473.677 328.586 488.724 321.969 498.885 313.489C498.061 310.966 496.773 307.234 496.773 307.234L502.043 310.653C506.636 306.196 510.057 301.363 512.602 296.615C509.85 294.859 506.793 292.783 506.793 292.783L514.835 291.987C520.296 279.314 519.983 268.361 519.983 268.361L519.976 268.354Z" fill="#3AFFFF"/>
<path d="M498.878 313.482C498.053 310.958 496.766 307.227 496.766 307.227L502.036 310.646C506.629 306.189 510.049 301.356 512.595 296.608C509.843 294.852 506.786 292.776 506.786 292.776L514.828 291.98C520.289 279.307 519.976 268.354 519.976 268.354C486.42 286.692 451.385 329.759 451.385 329.759C473.677 328.579 488.724 321.962 498.885 313.482H498.878Z" fill="#45DDD9"/>
<path d="M613.25 310.739H620.19C619.052 309.964 617.637 309.502 616.087 309.502H442.262C433.167 309.502 425.793 316.034 425.793 324.095V333.363C425.793 341.424 433.167 347.956 442.262 347.956L614.146 347.906L613.25 310.746V310.739Z" fill="#7772D6"/>
<path d="M440.378 333.356V324.088C440.378 316.027 447.752 309.495 456.847 309.495H453.113C444.019 309.495 436.645 316.027 436.645 324.088V333.356C436.645 341.417 444.019 347.949 453.113 347.949H456.797C447.723 347.921 440.378 341.403 440.378 333.356Z" fill="#D1EAF2"/>
<path d="M481.087 333.356V324.088C481.087 316.027 488.461 309.495 497.556 309.495H493.822C484.728 309.495 477.354 316.027 477.354 324.088V333.356C477.354 341.417 484.728 347.949 493.822 347.949H497.506C488.432 347.921 481.087 341.403 481.087 333.356Z" fill="#D1EAF2"/>
<path d="M514.565 309.53C505.868 309.53 498.814 315.778 498.814 323.483V333.953C498.814 341.658 505.861 347.906 514.565 347.906H622.778V345.56H622.33L594.818 343.25L589.258 323.924C589.258 323.924 599.988 313.241 600.692 312.971C601.389 312.693 622.33 311.862 622.33 311.862H622.778V309.53H514.565Z" fill="#45258F"/>
<path d="M615.76 328.651C615.76 317.349 622.352 311.869 622.352 311.869H516.784C508.798 311.869 502.32 317.605 502.32 324.685V332.745C502.32 339.825 508.798 345.561 516.784 345.561H622.352C622.352 345.561 615.76 342.874 615.76 328.644V328.651Z" fill="#D1EAF2"/>
<g style="mix-blend-mode:multiply">
<path d="M502.32 324.692V332.752C502.32 333.811 502.469 334.842 502.739 335.83C506.302 328.11 513.121 320.676 526.113 318.287C556.44 312.708 622.344 311.876 622.344 311.876H516.776C508.79 311.876 502.312 317.612 502.312 324.692H502.32Z" fill="#DAEEF7"/>
</g>
<path d="M610.384 387.59H618.235C616.947 386.616 615.34 386.04 613.591 386.04H416.854C406.558 386.04 398.217 394.214 398.217 404.3V415.9C398.217 425.987 406.558 434.161 416.854 434.161L611.387 434.097L610.377 387.59H610.384Z" fill="#45258F"/>
<path d="M498.693 386.075C488.851 386.075 480.873 393.894 480.873 403.54V416.647C480.873 426.292 488.851 434.111 498.693 434.111H621.164V431.175H620.659L589.52 428.289L583.227 404.094C583.227 404.094 595.372 390.724 596.162 390.383C596.951 390.035 620.652 388.99 620.652 388.99H621.156V386.068H498.686L498.693 386.075Z" fill="#7772D6"/>
<path d="M613.228 410.015C613.228 395.87 620.687 389.011 620.687 389.011H501.203C492.165 389.011 484.834 396.19 484.834 405.053V415.147C484.834 424.003 492.165 431.189 501.203 431.189H620.687C620.687 431.189 613.228 427.827 613.228 410.015Z" fill="#D1EAF2"/>
<g style="mix-blend-mode:multiply">
<path d="M484.835 405.053V415.147C484.835 416.476 485.006 417.762 485.312 418.992C489.344 409.332 497.066 400.021 511.764 397.028C546.088 390.041 620.681 389.011 620.681 389.011H501.197C492.159 389.011 484.828 396.19 484.828 405.053H484.835Z" fill="#DAEEF7"/>
</g>
<path d="M391.739 349.078H383.882C385.169 348.311 386.776 347.849 388.525 347.849H585.34C595.637 347.849 603.985 354.338 603.985 362.342V371.546C603.985 379.55 595.637 386.04 585.34 386.04L390.73 385.99L391.739 349.085V349.078Z" fill="#00B4FF"/>
<path d="M503.479 347.884C513.328 347.884 521.306 354.089 521.306 361.744V372.143C521.306 379.798 513.321 386.004 503.479 386.004H380.959V383.679H381.464L412.61 381.383L418.903 362.185C418.903 362.185 406.75 351.58 405.961 351.303C405.172 351.025 381.464 350.201 381.464 350.201H380.959V347.884H503.479Z" fill="#3B77BE"/>
<path d="M388.902 366.869C388.902 355.646 381.442 350.201 381.442 350.201H500.969C510.014 350.201 517.346 355.902 517.346 362.931V370.935C517.346 377.965 510.014 383.665 500.969 383.665H381.442C381.442 383.665 388.902 381 388.902 366.862V366.869Z" fill="#D1EAF2"/>
<g style="mix-blend-mode:multiply">
<path d="M517.346 362.939V370.943C517.346 371.995 517.175 373.018 516.869 373.999C512.837 366.33 505.115 358.951 490.402 356.577C456.064 351.033 381.442 350.216 381.442 350.216H500.969C510.014 350.216 517.346 355.916 517.346 362.946V362.939Z" fill="#DAEEF7"/>
</g>
<path opacity="0.5" d="M567.932 371.546V362.342C567.932 354.338 559.584 347.849 549.287 347.849H567.974C578.271 347.849 586.619 354.338 586.619 362.342V371.546C586.619 379.55 578.271 386.04 567.974 386.04H549.536C559.719 385.933 567.932 379.486 567.932 371.546Z" fill="#55769F"/>
<path d="M376.884 435.639H368.415C369.802 434.779 371.537 434.26 373.421 434.26H585.588C596.689 434.26 605.691 441.51 605.691 450.452V460.737C605.691 469.679 596.696 476.929 585.588 476.929L375.796 476.872L376.891 435.639H376.884Z" fill="#3AFFFF"/>
<path d="M497.335 434.296C507.952 434.296 516.556 441.226 516.556 449.777V461.398C516.556 469.949 507.952 476.88 497.335 476.88H365.258V474.278H365.805L399.383 471.719L406.167 450.275C406.167 450.275 393.068 438.426 392.215 438.12C391.362 437.814 365.805 436.89 365.805 436.89H365.258V434.303H497.335V434.296Z" fill="#45DDD9"/>
<path d="M373.819 455.52C373.819 442.982 365.776 436.904 365.776 436.904H494.633C504.382 436.904 512.289 443.273 512.289 451.127V460.076C512.289 467.93 504.382 474.299 494.633 474.299H365.776C365.776 474.299 373.819 471.314 373.819 455.527V455.52Z" fill="#D1EAF2"/>
<g style="mix-blend-mode:multiply">
<path d="M512.282 451.12V460.069C512.282 461.242 512.104 462.386 511.77 463.481C507.425 454.916 499.098 446.663 483.241 444.012C446.222 437.821 365.776 436.904 365.776 436.904H494.633C504.382 436.904 512.289 443.273 512.289 451.127L512.282 451.12Z" fill="#DAEEF7"/>
</g>
<path d="M310.034 321.557L379.116 282.065L388.453 300.553L317.771 337.934L310.034 321.557Z" fill="#00B4FF"/>
<path d="M702.056 334.551H694.455C693.623 334.551 692.947 333.875 692.947 333.044V325.445C692.947 324.614 693.623 323.938 694.455 323.938H702.056C702.888 323.938 703.564 324.614 703.564 325.445V333.044C703.564 333.875 702.888 334.551 702.056 334.551ZM694.455 324.351C693.85 324.351 693.36 324.841 693.36 325.445V333.044C693.36 333.648 693.85 334.138 694.455 334.138H702.056C702.661 334.138 703.151 333.648 703.151 333.044V325.445C703.151 324.841 702.661 324.351 702.056 324.351H694.455Z" fill="#DAEEF7"/>
<path d="M658.695 212.77V191.453C658.695 184.146 652.771 178.226 645.461 178.226H257.783C250.473 178.226 244.55 184.146 244.55 191.453V212.77H658.695Z" fill="#7D00D2"/>
<path d="M632.527 187.104H471.039C466.405 187.104 462.648 190.859 462.648 195.491V195.498C462.648 200.13 466.405 203.885 471.039 203.885H632.527C637.161 203.885 640.918 200.13 640.918 195.498V195.491C640.918 190.859 637.161 187.104 632.527 187.104Z" fill="white"/>
<path d="M278.768 195.499C278.768 199.522 275.504 202.784 271.479 202.784C267.454 202.784 264.19 199.522 264.19 195.499C264.19 191.475 267.454 188.213 271.479 188.213C275.504 188.213 278.768 191.475 278.768 195.499Z" fill="white"/>
<path d="M310.624 195.499C310.624 199.522 307.36 202.784 303.336 202.784C299.311 202.784 296.047 199.522 296.047 195.499C296.047 191.475 299.311 188.213 303.336 188.213C307.36 188.213 310.624 191.475 310.624 195.499Z" fill="white"/>
<path d="M342.488 195.499C342.488 199.522 339.225 202.784 335.2 202.784C331.175 202.784 327.911 199.522 327.911 195.499C327.911 191.475 331.175 188.213 335.2 188.213C339.225 188.213 342.488 191.475 342.488 195.499Z" fill="white"/>
<path d="M270.469 341.829C271.109 341.289 271.692 340.862 271.692 340.862C277.744 334.749 277.573 334.607 277.388 334.351C277.203 334.096 273.996 335.894 273.904 335.538C273.811 335.183 277.21 331.444 276.763 331.38C276.322 331.309 272.759 334.38 272.61 334.124C272.46 333.875 275.795 330.314 275.291 329.895C274.786 329.475 271.273 333.491 271.01 333.001C270.747 332.503 274.459 328.48 273.939 328.168C273.506 327.905 269.246 332.311 267.895 333.719C267.725 333.904 267.419 333.811 267.362 333.57C266.487 329.802 266.196 329.561 265.805 329.753C265.527 329.888 264.752 334.991 264.29 338.247L270.469 341.836C270.469 341.836 270.469 341.836 270.469 341.829Z" fill="#E2E2E2"/>
<path d="M220.85 335.097C215.993 325.288 204.865 327.975 204.396 328.089L203.912 326.212C204.04 326.177 217.025 323 222.585 334.237L220.843 335.097H220.85Z" fill="#62BDF3"/>
<path d="M201.131 337.984C201.131 337.984 199.098 330.812 221.98 331.892C224.206 331.999 227.328 333.726 228.409 335.674L233.415 344.686C233.415 344.686 216.32 350.998 214.308 348.667C212.295 346.335 201.131 337.984 201.131 337.984Z" fill="#7D00D2"/>
<path d="M188.908 336.384C188.908 336.384 195.848 334.934 208.754 335.844C221.66 336.761 202.781 344.018 202.781 344.018C202.781 344.018 196.154 343.805 195.869 343.748C195.585 343.691 188.9 336.384 188.9 336.384H188.908Z" fill="#E2E2E2"/>
<path d="M205.327 329.105H193.864V349.178H205.327V329.105Z" fill="#E2E2E2"/>
<path d="M236.715 360.899C236.715 360.899 243.392 392.728 241.457 396.169C239.516 399.609 214.088 400.682 214.088 400.682L213.007 359.819L222.706 345.19L236.715 360.892V360.899Z" fill="#7D00D2"/>
<path d="M228.707 456.082L228.188 503.058L225.187 510.365L217.628 503.058L209.259 456.139L228.707 456.082Z" fill="#E2E2E2"/>
<path d="M176.783 456.928L173.626 503.058L176.677 509.953L183.667 505.802L192.47 456.139L176.783 456.928Z" fill="#E2E2E2"/>
<path d="M175.738 405.743L171.855 491.365C171.855 491.365 180.275 495.885 189.341 492.012L196.786 425.773L203.264 424.806L212.978 490.398C212.978 490.398 220.75 496.212 231.758 491.365L223.985 403.482L175.745 405.743H175.738Z" fill="#00B4FF"/>
<path d="M245.184 349.69L253.112 353.08L264.362 338.175L270.626 341.473L262.819 358.923C261.091 363.6 256.483 366.585 251.505 366.258L237.731 365.356L245.177 349.683L245.184 349.69Z" fill="#E2E2E2"/>
<g style="mix-blend-mode:multiply" opacity="0.48">
<path d="M212.345 409.262C212.345 409.262 215.922 425.837 225.991 426.171L224.497 409.262H212.352H212.345Z" fill="#00B4FF"/>
</g>
<g style="mix-blend-mode:multiply" opacity="0.48">
<path d="M188.459 409.262C188.459 409.262 184.882 425.837 174.813 426.171L174.892 424.331L188.459 409.262Z" fill="#00B4FF"/>
</g>
<path d="M205.306 332.538V325.693H193.864V331.515C196.325 332.837 199.973 333.597 205.306 332.538Z" fill="#A0A0A0"/>
<path d="M223.346 305.252C222.151 304.662 220.764 304.768 219.513 305.401C219.947 294.135 210.738 284.66 199.14 285.058C187.542 284.66 178.334 294.135 178.768 305.401C177.516 304.768 176.129 304.662 174.935 305.252C172.645 306.382 171.934 309.609 173.342 312.466C174.757 315.324 177.758 316.724 180.048 315.601C180.367 315.444 180.652 315.245 180.908 315.011C182.223 324.322 190.003 331.309 199.14 331.181C208.278 331.309 216.064 324.329 217.373 315.011C217.629 315.245 217.913 315.444 218.233 315.601C220.523 316.731 223.523 315.324 224.938 312.466C226.354 309.609 225.635 306.382 223.346 305.252Z" fill="#E2E2E2"/>
<path d="M189.014 335.631L177.801 337.564C174.195 338.19 170.967 340.187 168.812 343.137L154.697 362.442L173.797 373.104L171.209 410.264C171.209 410.264 205.853 418.985 226.894 409.617L223.979 358.568L237.255 370.843C237.255 370.843 248.262 358.241 249.236 349.52L224.633 336.917L208.448 335.304C208.448 335.304 199.062 345.646 189.021 335.624L189.014 335.631Z" fill="#0000ED"/>
<g style="mix-blend-mode:multiply">
<path d="M171.209 410.271L173.797 373.11L175.852 361.475L179.01 339.141L188.908 338.175C188.908 338.175 198.223 347.252 209.323 338.175L221.213 340.513L224.718 371.511L226.894 409.624C226.894 409.624 211.769 418.971 171.209 410.271Z" fill="#0000ED"/>
</g>
<path d="M173.797 373.111C173.953 371.135 174.252 369.187 174.586 367.247C174.935 365.306 175.319 363.373 175.852 361.468C175.695 363.444 175.397 365.391 175.063 367.332C174.714 369.272 174.33 371.206 173.797 373.111Z" fill="#96A65F"/>
<path d="M188.979 390.71C188.979 390.71 191.212 390.34 192.442 391.975L192.357 396.19L189.626 397.462C189.626 397.462 186.249 394.591 186.497 394.52C186.753 394.448 188.972 390.71 188.972 390.71H188.979Z" fill="#3B77BE"/>
<path d="M195.926 418.26L159.959 428.645L156.475 402.367L192.441 391.982L195.926 418.26Z" fill="#3B77BE"/>
<path d="M156.987 424.416L160.152 427.074L194.575 417.23L191.482 392.466L189.05 391.449L156.987 424.416Z" fill="#DAEEF7"/>
<g style="mix-blend-mode:multiply">
<path d="M194.575 417.23L192.122 415.097L187.628 410.172L187.898 396.624L189.05 391.449L191.489 392.423L194.575 417.23Z" fill="#DAEEF7"/>
</g>
<path d="M192.122 415.097L156.155 425.482L153.005 401.095L188.979 390.71L192.122 415.097Z" fill="#3B77BE"/>
<path d="M174.892 408.999C178.76 409.219 179.073 409.013 179.002 408.587C178.952 408.281 174.309 406.12 171.308 404.756C161.722 388.557 172.694 367.212 172.694 367.212L161.502 360.942C145.744 386.574 166.053 409.689 166.053 409.689L166.088 409.66C166.423 410.421 166.672 411.096 166.672 411.096C170.839 418.616 171.023 418.495 171.322 418.389C171.621 418.282 170.796 414.707 171.166 414.714C171.535 414.721 174.166 419.028 174.358 418.623C174.55 418.218 172.609 413.946 172.894 413.875C173.178 413.804 175.653 417.998 176.2 417.635C176.748 417.273 173.875 412.766 174.43 412.66C174.977 412.546 177.8 417.237 178.248 416.825C178.618 416.484 175.596 411.16 174.622 409.475C174.494 409.255 174.664 408.992 174.913 409.006L174.892 408.999Z" fill="#E2E2E2"/>
<path d="M154.697 362.449C154.697 362.449 163.984 372.705 173.797 373.111C173.797 373.111 174.487 365.775 174.345 365.562C174.202 365.349 171.827 360.188 170.035 359.47C168.236 358.753 160.336 357.537 160.336 357.537L154.697 362.456V362.449Z" fill="#0000ED"/>
<path d="M224.682 336.995C225.159 368.967 237.66 374.774 237.766 374.987L238.307 382.301C238.307 382.301 214.172 375.094 216.697 336.291C216.768 335.204 217.692 334.372 218.773 334.529L223.139 335.183C224.035 335.318 224.668 336.092 224.682 336.995Z" fill="#B781E2"/>
<path d="M184.179 503.058V511.168C184.179 511.836 183.638 512.383 182.963 512.383H163.941C162.562 512.383 162.043 510.592 163.202 509.853L173.619 503.065C173.619 503.065 178.056 506.121 184.172 503.065L184.179 503.058Z" fill="#45258F"/>
<path d="M217.629 503.058V511.168C217.629 511.836 218.169 512.383 218.845 512.383H237.866C239.246 512.383 239.765 510.592 238.606 509.853L228.189 503.065C228.189 503.065 223.751 506.121 217.636 503.065L217.629 503.058Z" fill="#45258F"/>
<path d="M216.512 298.499L218.489 310.206C220.643 302.721 220.018 297.497 219.733 295.897C219.683 295.613 219.641 295.329 219.605 295.044C219.221 292.066 213.945 289.28 213.945 289.28C217.472 286.273 216.711 280.075 216.711 280.075C215.481 284.02 211.335 285.335 211.335 285.335C214.407 278.383 212.715 274.438 212.715 274.438C212.253 278.76 204.58 280.26 204.58 280.26C205.348 277.068 205.959 274.438 205.959 274.438C204.58 276.507 199.51 281.205 191.226 281.575C182.934 281.952 182.017 290.026 182.017 290.026C176.264 294.305 177.871 304.64 179.557 311.009L181.221 301.122C181.27 300.653 181.327 300.212 181.398 299.792C181.448 299.501 181.512 299.224 181.583 298.954V298.925C182.97 294.021 188.602 292.841 188.602 292.841C199.041 298.293 209.934 292.656 209.934 292.656C215.31 294.725 216.491 298.492 216.491 298.492L216.512 298.499Z" fill="#0000ED"/>
<path d="M102.262 512.831H778.606C780.767 512.831 782.517 514.58 782.517 516.74C782.517 518.901 780.767 520.65 778.606 520.65H102.262C100.1 520.65 98.3506 518.901 98.3506 516.74C98.3506 514.587 100.1 512.831 102.262 512.831Z" fill="white"/>
<path d="M271.892 196.87L274.807 203.367C275.049 203.907 274.807 204.532 274.274 204.774L259.057 211.591C257.954 212.081 256.895 210.837 257.556 209.828L263.444 200.659C263.444 200.659 268.102 201.512 271.892 196.87Z" fill="white"/>
<path d="M291.219 196.87L294.134 203.367C294.376 203.907 294.134 204.532 293.601 204.774L278.384 211.591C277.281 212.081 276.222 210.837 276.883 209.828L282.771 200.659C282.771 200.659 287.429 201.512 291.219 196.87Z" fill="white"/>
<path d="M324.078 17.8066L325.692 27.9496L329.113 14.4303C329.113 14.4303 324.32 12.1061 324.114 12.9519C323.9 13.7977 324.078 17.8137 324.078 17.8137V17.8066Z" fill="#00B4FF"/>
<path d="M351.271 39.6426L352.75 57.1707L337.276 56.4315L339.061 40.9078L351.271 39.6426Z" fill="#E2E2E2"/>
<path opacity="0.6" d="M338.208 48.2929L339.054 40.9078L351.271 39.6426L351.783 45.7127C349.358 48.1294 344.985 50.6385 338.208 48.2929Z" fill="#B7B7B7"/>
<path d="M328.722 27.8224C329.653 29.7487 329.155 31.9095 327.619 32.6558C326.076 33.4021 324.078 32.4426 323.147 30.5163C322.215 28.5901 322.713 26.4293 324.249 25.6829C325.792 24.9366 327.79 25.8962 328.722 27.8224Z" fill="#E2E2E2"/>
<path d="M326.474 29.2368C326.396 28.7322 326.282 28.2417 326.161 27.7442C325.678 25.7468 325.55 23.6074 325.884 21.3826C326.958 14.2107 332.732 8.48879 339.921 7.49368C349.606 6.15739 358.139 13.3222 358.743 22.8184C359.739 22.1787 360.891 21.9725 361.943 22.3635C363.956 23.1169 364.83 25.7611 363.892 28.2773C362.953 30.7935 360.557 32.2293 358.544 31.4758C358.267 31.3692 358.011 31.2271 357.776 31.0565C357.463 39.1879 351.241 45.841 343.291 46.2177C339.402 46.4025 335.789 45.0449 332.981 42.6708C329.162 39.8632 327.235 33.9138 326.474 29.2368Z" fill="#E2E2E2"/>
<path d="M342.752 121.889C342.752 121.889 345.98 143.774 324.825 147.591C303.67 151.408 277.346 150.263 277.346 150.263L273.684 200.545L262.64 201.106C262.64 201.106 234.197 131.25 273.563 120.325L308.939 120.495L323.51 119.458C323.51 119.458 338.25 115.818 338.421 116.508C338.592 117.204 342.41 122.23 342.759 121.881L342.752 121.889Z" fill="#39D0FF"/>
<path d="M362.193 122.002C362.193 122.002 365.421 143.887 344.266 147.704C323.112 151.521 296.787 150.377 296.787 150.377L293.125 200.658L282.082 201.22C282.082 201.22 253.638 131.363 293.004 120.438L328.381 120.609L342.951 119.571C342.951 119.571 357.692 115.932 357.862 116.621C358.033 117.318 361.852 122.343 362.2 121.995L362.193 122.002Z" fill="#26C5EA"/>
<path d="M335.542 50.1834C335.542 50.1834 320.971 52.0315 317.274 55.0382C313.576 58.0448 295.771 102.185 295.771 102.185L310.568 119.521L342.013 119.756C342.013 119.756 365.599 132.465 380.397 120.452C395.195 108.433 387.565 66.5957 379.01 57.5828C370.456 48.5699 355.196 48.7974 355.196 48.7974C355.196 48.7974 341.323 58.5068 335.542 50.1834Z" fill="#7D00D2"/>
<path d="M363.758 72.1396C363.239 74.5421 362.919 76.9873 362.691 79.4395C362.563 80.6621 362.513 81.8917 362.442 83.1214C362.407 84.3511 362.378 85.5807 362.392 86.8175C362.442 89.284 362.577 91.7575 362.997 94.1956C363.409 96.6265 364.014 99.0645 365.144 101.261C364.383 98.9152 364.007 96.5127 363.736 94.096C363.466 91.6793 363.374 89.2413 363.345 86.8033C363.295 84.3653 363.352 81.9273 363.431 79.4821C363.516 77.037 363.63 74.5919 363.758 72.1396Z" fill="#45258F"/>
<path d="M320.167 70.5195C319.499 74.1019 318.795 77.6701 318.084 81.2312C317.351 84.7923 316.598 88.3391 315.737 91.8646C314.884 95.3902 313.938 98.8873 312.793 102.32C312.217 104.033 311.577 105.732 310.831 107.374C310.091 109.023 309.209 110.615 308.036 112.009C309.373 110.758 310.361 109.18 311.25 107.58C312.111 105.96 312.857 104.282 313.497 102.569C314.151 100.863 314.713 99.1218 315.247 97.3733C315.759 95.6176 316.228 93.8549 316.669 92.085C317.088 90.308 317.486 88.531 317.849 86.7398C318.198 84.9486 318.539 83.1574 318.823 81.3591C319.421 77.7625 319.883 74.1446 320.182 70.5195H320.167Z" fill="#45258F"/>
<path d="M312.851 109.527C312.943 108.795 318.504 107.978 320.545 107.871C322.095 107.793 332.349 107.452 335.84 107.288L335.584 108.184L335.634 112.143L336.21 114.766C333.145 114.958 325.665 115.249 324.107 115.562C322.024 115.974 318.412 117.545 318.412 117.545C318.412 117.545 316.911 117.204 318.817 116.379C320.346 115.718 321.427 114.695 321.882 114.183C322.145 113.891 321.86 113.365 321.668 113.415C316.47 114.78 315.937 115 315.937 115C315.937 115 309.829 114.965 315.901 113.593C319.542 112.768 320.843 112.292 321.171 111.887C321.306 111.716 321.064 111.119 320.843 111.105C317.693 110.913 312.033 112.029 313.583 111.297C314.849 110.7 318.831 110.046 320.381 109.797C320.474 109.783 320.63 109.207 320.203 109.172C317.203 108.923 312.765 110.195 312.851 109.513V109.527Z" fill="#E2E2E2"/>
<path d="M367.312 100.657C366.032 100.97 364.774 101.325 363.487 101.595C362.214 101.901 360.92 102.121 359.64 102.392C357.058 102.861 354.477 103.273 351.882 103.635C349.286 103.977 346.684 104.289 344.081 104.538C341.486 104.794 338.84 105.014 336.273 105.164L335.925 105.185L335.847 105.484C335.626 106.358 335.484 107.204 335.37 108.078C335.264 108.945 335.214 109.819 335.214 110.694C335.221 111.568 335.299 112.449 335.441 113.316C335.598 114.184 335.861 115.029 336.202 115.847L336.231 115.918L336.288 115.953L339.146 117.866C340.099 118.505 341.052 119.138 342.019 119.756C341.123 119.038 340.22 118.335 339.31 117.638L336.586 115.541L336.672 115.648C336.387 114.859 336.181 114.049 336.074 113.217C335.975 112.385 335.925 111.547 335.953 110.701C335.982 109.862 336.067 109.016 336.181 108.185C336.302 107.353 336.465 106.514 336.686 105.725L336.266 106.045C337.624 106.009 338.912 105.924 340.234 105.825C341.55 105.725 342.858 105.626 344.166 105.484C346.783 105.213 349.4 104.886 352.003 104.474C354.605 104.055 357.186 103.55 359.754 102.939C361.033 102.612 362.306 102.299 363.565 101.901C364.831 101.546 366.075 101.105 367.312 100.664V100.657Z" fill="#45258F"/>
<path d="M247.067 80.1152H303.947L320.075 119.465H347.473C348.241 119.465 348.86 120.083 348.86 120.851C348.86 121.618 348.241 122.237 347.473 122.237H265.968L247.067 80.1152Z" fill="#0000ED"/>
<path d="M275.269 102.568C275.603 104.246 277.068 105.369 278.533 105.07C279.998 104.779 280.922 103.18 280.581 101.502C280.247 99.8247 278.782 98.7017 277.317 99.0002C275.852 99.2916 274.928 100.891 275.269 102.568Z" fill="#DAEEF7"/>
<path d="M323.773 8.21113C323.773 8.21113 318.916 8.36751 324.014 4.25912C329.113 0.150739 342.794 -4.66133 351.562 -0.0269589C351.562 -0.0269589 353.318 -3.75151 355.85 -2.86302C358.388 -1.97453 354.2 0.591431 354.2 0.591431C354.2 0.591431 357.436 0.484812 358.424 2.07699C359.156 3.2498 357.173 3.29955 356.085 3.2498C357.926 3.56254 364.994 8.02633 361.446 22.2635C360.188 21.9863 353.006 11.5732 353.006 11.5732C353.006 11.5732 336.579 20.6927 338.208 13.4426C338.208 13.4426 321.191 24.0547 323.602 15.2906C323.602 15.2906 317.024 15.774 323.766 8.21113H323.773Z" fill="#00B4FF"/>
<path d="M361.467 22.3488C361.467 22.3488 360.109 21.8726 358.644 23.0312C357.18 24.1897 357.343 28.2697 357.343 28.2697C357.343 28.2697 350.36 32.769 351.1 13.7269C351.882 -6.53072 356.924 15.3546 356.924 15.3546L361.467 22.3559V22.3488Z" fill="#00B4FF"/>
<path d="M690.51 198.171L687.8 204.206C687.58 204.703 687.8 205.286 688.298 205.513L702.434 211.847C703.458 212.309 704.447 211.143 703.828 210.212L698.36 201.696C698.36 201.696 694.036 202.485 690.51 198.178V198.171Z" fill="white"/>
<path d="M672.191 197.453L669.482 203.488C669.261 203.985 669.482 204.568 669.98 204.796L684.116 211.129C685.14 211.591 686.128 210.425 685.51 209.494L680.042 200.979C680.042 200.979 675.718 201.768 672.191 197.46V197.453Z" fill="white"/>
<path d="M655.674 2.07C655.674 2.07 671.076 -0.524395 676.246 16.6768L669.867 26.2227C669.867 26.2227 656.492 21.0837 656.435 20.579C656.385 20.0744 655.674 2.07 655.674 2.07Z" fill="#0000ED"/>
<path d="M630.878 9.82422C630.878 9.82422 626.384 16.5768 624.095 19.2564C618.328 25.9948 617.588 23.8766 614.004 29.6767C610.136 35.9316 614.047 39.8481 616.273 41.6464C618.498 43.4518 614.772 50.1191 618.918 53.8507C624.343 58.741 629.364 54.1279 633.09 56.8716C636.823 59.6153 637.641 63.6739 646.487 62.9062C655.333 62.1386 655.247 33.2306 655.247 33.2306C655.247 33.2306 648.008 17.9059 647.717 17.778C647.432 17.65 630.871 9.82422 630.871 9.82422H630.878Z" fill="#0000ED"/>
<path d="M676.245 16.6768C676.245 16.6768 676.771 21.9793 678.527 25.0357C682.943 32.7265 685.325 30.2031 687.772 36.5647C690.41 43.4239 685.837 46.5514 683.32 47.909C680.803 49.2666 683.221 56.5096 678.456 59.4167C672.22 63.2195 668.145 57.7535 663.964 59.7579C659.79 61.7624 658.233 65.6006 649.686 63.2053C641.138 60.8099 646.585 32.4208 646.585 32.4208C646.585 32.4208 656.541 18.7025 656.846 18.6314C657.152 18.5604 676.245 16.6839 676.245 16.6839V16.6768Z" fill="#0000ED"/>
<path d="M653.895 50.9154C653.895 50.9154 639.133 48.2001 632.342 48.4276C625.551 48.655 636.459 66.304 636.459 66.304L647.545 66.5528C647.545 66.5528 654.343 58.9615 653.895 58.0802C653.447 57.1988 653.916 51.4058 653.916 51.4058L653.895 50.9154Z" fill="#E2E2E2"/>
<path d="M640.735 36.834L636.838 48.6474C636.838 48.6474 640.23 55.6558 650.612 52.6349C650.612 52.6349 649.424 50.1898 651.017 45.1503C652.638 40.0041 640.735 36.834 640.735 36.834Z" fill="#E2E2E2"/>
<path opacity="0.6" d="M640.734 36.8343L638.906 42.35C639.994 46.3873 643.528 49.131 650.191 49.9839C650.191 48.7827 650.376 47.1763 651.016 45.1434C652.637 39.9973 640.734 36.8271 640.734 36.8271V36.8343Z" fill="#B7B7B7"/>
<path opacity="0.6" d="M664.483 28.1836C663.644 30.1028 664.206 32.2067 665.735 32.8749C667.271 33.5501 669.198 32.5408 670.044 30.6217C670.883 28.7025 670.321 26.5986 668.792 25.9304C667.256 25.2552 665.329 26.2645 664.483 28.1836Z" fill="#B7B7B7"/>
<path d="M664.911 36.8983C665.906 34.4248 666.447 31.7877 666.731 29.4848C666.795 28.9872 666.88 28.5039 666.98 28.0134C667.378 26.0445 667.428 23.9406 667.023 21.7656C665.707 14.7785 659.848 9.37644 652.765 8.66564C643.23 7.70607 635.13 15.0343 634.882 24.3528C633.879 23.7629 632.748 23.5994 631.731 24.0259C629.783 24.8362 629.022 27.459 630.039 29.8899C631.049 32.3208 633.445 33.6358 635.393 32.8326C635.664 32.7189 635.905 32.5696 636.133 32.3919C636.73 40.3457 643.073 46.6433 650.874 46.7215C656.733 46.7784 662.5 43.2315 664.918 36.8983H664.911Z" fill="#E2E2E2"/>
<path d="M628.212 123.104C628.212 123.104 623.86 143.582 643.614 148.45C663.368 153.312 688.299 153.81 688.299 153.81L688.761 201.518L699.157 202.705C699.157 202.705 730.189 138.421 693.653 125.755L660.232 123.807L646.536 121.959C646.536 121.959 632.834 117.645 632.628 118.284C632.421 118.931 628.518 123.452 628.212 123.104Z" fill="#37DDD9"/>
<path d="M609.843 122.052C609.843 122.052 605.491 142.53 625.245 147.399C644.999 152.261 669.93 152.758 669.93 152.758L670.392 200.467L680.788 201.654C680.788 201.654 711.82 137.369 675.284 124.703L641.863 122.756L628.167 120.907C628.167 120.907 614.465 116.593 614.258 117.233C614.052 117.879 610.148 122.4 609.843 122.052Z" fill="#3AFFFF"/>
<path d="M675.904 154.123C675.335 154.016 674.766 153.924 674.204 153.789C673.642 153.661 673.088 153.504 672.54 153.341C672.263 153.255 671.985 153.163 671.715 153.064C672 153.007 672.277 152.921 672.554 152.822C673.095 152.63 673.607 152.353 674.083 152.04C674.545 151.699 674.979 151.336 675.363 150.917C675.747 150.505 676.074 150.043 676.366 149.566L675.797 150.178C675.591 150.37 675.406 150.569 675.192 150.746C674.787 151.123 674.339 151.436 673.877 151.72C673.415 152.004 672.917 152.232 672.412 152.41C671.907 152.58 671.36 152.701 670.862 152.722L669.938 152.758L670.755 153.142C671.31 153.398 671.865 153.568 672.433 153.732C673.002 153.888 673.578 154.002 674.154 154.101C674.73 154.194 675.313 154.279 675.889 154.322C676.472 154.364 677.055 154.393 677.631 154.393C677.055 154.307 676.48 154.236 675.911 154.137L675.904 154.123Z" fill="white"/>
<path d="M670.67 79.667C670.67 79.667 672.014 113.131 675.783 118.37L655.076 113.664V77.2432L670.67 79.6599V79.667Z" fill="#E2E2E2"/>
<path d="M661.853 84.2375C661.853 84.2375 658.973 92.6604 658.447 97.1313C657.145 108.241 658.56 116.081 660.857 122.4C664.086 131.271 637.733 128.044 637.192 127.774C636.652 127.503 614.068 118.768 614.068 118.768L609.766 106.272V84.2304L610.974 74.1514L661.846 84.2304L661.853 84.2375Z" fill="#00B4FF"/>
<path d="M598.744 74.1585L615.326 79.8022C615.326 79.8022 612.461 106.322 613.357 110.082C614.125 113.295 626.149 119.692 633.765 123.274C634.988 123.85 636.346 124.099 637.697 123.985C642.035 123.63 649.729 122.954 650.938 122.876C652.836 122.748 658.049 122.876 658.219 123.544C658.376 124.163 654.145 123.48 651.4 124.049C651.016 124.127 651.222 124.646 651.308 124.646C652.765 124.703 656.506 124.859 657.743 125.272C659.257 125.776 653.91 125.378 651.023 125.904C650.824 125.94 650.66 126.515 650.803 126.658C651.144 126.999 652.403 127.29 655.851 127.646C661.604 128.236 655.979 128.946 655.979 128.946C655.979 128.946 655.46 128.797 650.518 128.122C650.34 128.101 650.134 128.612 650.412 128.854C650.888 129.273 651.997 130.098 653.483 130.539C655.332 131.086 653.988 131.569 653.988 131.569C653.988 131.569 650.483 130.524 648.52 130.375C647.048 130.261 640.115 130.83 637.271 130.993L637.05 130.503C633.196 130.389 602.427 129.593 599.469 110.53C596.419 90.9119 598.751 74.1514 598.751 74.1514L598.744 74.1585Z" fill="#E2E2E2"/>
<path d="M719.273 93.1514H666.432L651.449 129.707H625.992C625.281 129.707 624.705 130.283 624.705 130.994C624.705 131.705 625.281 132.281 625.992 132.281H701.709L719.266 93.1514H719.273Z" fill="#7D00D2"/>
<path d="M688.645 114.006C688.332 115.563 686.974 116.608 685.609 116.331C684.244 116.06 683.39 114.575 683.703 113.018C684.016 111.462 685.374 110.417 686.74 110.694C688.105 110.964 688.958 112.45 688.645 114.006Z" fill="#DAEEF7"/>
<path d="M653.896 50.9155C653.896 50.9155 643.862 62.6223 632.343 48.4277C632.343 48.4277 619.763 47.4042 610.484 53.9861C601.204 60.5681 595.65 75.3597 595.65 75.3597C595.65 75.3597 612.453 83.8252 616.627 84.2304H663.282C663.282 84.2304 670.407 83.6902 677.262 80.2002C677.262 80.2002 676.082 56.6871 653.896 50.9084V50.9155Z" fill="#00B4FF"/>
<path d="M622.757 70.896C622.323 72.346 621.932 73.8102 621.548 75.2744C620.823 78.1532 620.162 80.8897 619.671 83.8324C618.761 83.875 617.737 83.74 616.841 83.612C611.998 82.752 608.813 81.3944 604.496 79.6316C598.033 76.6889 598.907 76.9732 595.65 75.3668C599.433 77.7622 601.474 78.8355 604.226 80.2144C608.002 81.963 611.614 83.5836 616.699 84.4792C618.924 84.7848 619.564 84.7138 620.403 84.6214C620.73 82.4606 621.107 80.25 622.138 75.4095L623.098 70.9741L624.087 66.5459C623.603 67.9817 623.184 69.4388 622.75 70.8888L622.757 70.896Z" fill="#3B77BE"/>
<path d="M659.562 63.1484C660.217 64.8686 660.821 66.5958 661.354 68.3372C661.881 70.0787 662.343 71.8343 662.649 73.6184C662.94 75.1324 663.139 77.1226 663.075 78.992C663.011 80.7903 660.345 89.2345 659.562 90.9049C660.665 89.4193 663.566 80.904 663.758 79.0489C663.985 77.1866 663.829 75.2959 663.516 73.4692C663.161 71.6211 662.698 69.901 662.002 68.124C661.333 66.3968 660.551 64.7193 659.562 63.1555V63.1484Z" fill="#3B77BE"/>
<path d="M634.881 24.3533C634.881 24.3533 652.117 20.1952 660.352 8.48841C660.352 8.48841 660.494 -2.17348 644.672 0.243214C629.299 2.59594 625.7 17.551 634.881 24.3533Z" fill="#0000ED"/>
<defs>
<linearGradient id="paint0_linear_1694_51" x1="0" y1="364.724" x2="847.041" y2="364.724" gradientUnits="userSpaceOnUse">
<stop stop-color="#7D00D2"/>
<stop offset="1" stop-color="#3AFFFF"/>
</linearGradient>
</defs>
</svg>
