<svg width="25" height="23" viewBox="0 0 25 23" fill="none" xmlns="http://www.w3.org/2000/svg">
<path d="M5.9082 0.251953C4.47266 0.251953 3.22266 1.22852 2.87598 2.62012L0.0927734 13.748C0.0292969 13.9971 0 14.251 0 14.5049V19.002C0 20.7256 1.40137 22.127 3.125 22.127H21.875C23.5986 22.127 25 20.7256 25 19.002V14.5049C25 14.251 24.9707 13.9971 24.9072 13.748L22.124 2.62012C21.7773 1.22852 20.5273 0.251953 19.0918 0.251953H5.9082ZM5.9082 3.37695H19.0918L21.4355 12.752H18.9355C18.3447 12.752 17.8027 13.084 17.5391 13.6162L16.8408 15.0127C16.5771 15.54 16.0352 15.877 15.4443 15.877H9.56055C8.96973 15.877 8.42773 15.5449 8.16406 15.0127L7.46582 13.6162C7.20215 13.0889 6.66016 12.752 6.06934 12.752H3.56445L5.9082 3.37695Z" fill="white"/>
</svg>
