<svg width="25" height="23" viewBox="0 0 25 23" fill="none" xmlns="http://www.w3.org/2000/svg">
<path d="M24.9934 11.0416C24.9934 11.8195 24.3423 12.4288 23.6044 12.4288H22.2154L22.2458 19.352C22.2458 19.4687 22.2371 19.5854 22.2241 19.702V20.3978C22.2241 21.3529 21.4471 22.1264 20.4879 22.1264H19.7934C19.7456 22.1264 19.6979 22.1264 19.6501 22.1221C19.5893 22.1264 19.5286 22.1264 19.4678 22.1264H18.0571H17.0153C16.0561 22.1264 15.2791 21.3529 15.2791 20.3978V19.3606V16.5948C15.2791 15.8299 14.6584 15.2119 13.8901 15.2119H11.1121C10.3438 15.2119 9.72305 15.8299 9.72305 16.5948V19.3606V20.3978C9.72305 21.3529 8.94607 22.1264 7.98679 22.1264H6.94504H5.56037C5.49526 22.1264 5.43015 22.1221 5.36504 22.1178C5.31295 22.1221 5.26086 22.1264 5.20878 22.1264H4.51427C3.55499 22.1264 2.77801 21.3529 2.77801 20.3978V15.5577C2.77801 15.5188 2.77801 15.4755 2.78235 15.4366V12.4288H1.38901C0.607691 12.4288 0 11.8238 0 11.0416C0 10.6527 0.130219 10.3069 0.434065 10.0044L11.5635 0.345726C11.8673 0.0432157 12.2146 0 12.5184 0C12.8223 0 13.1695 0.0864314 13.43 0.30251L24.516 10.0044C24.8632 10.3069 25.0369 10.6527 24.9934 11.0416Z" fill="white"/>
</svg>
